<!-- Download new fonts from: https://fontawesome.com/search?f=classic&s=solid&o=r -->
<svg xmlns="http://www.w3.org/2000/svg" style="display:none">
    <symbol id="icon-plus" viewBox="0 0 640 640">
        <!--!Font Awesome Free 7.0.0 by @fontawesome - https://fontawesome.com License - https://fontawesome.com/license/free Copyright 2025 Fonticons, Inc.--><path d="M352 128C352 110.3 337.7 96 320 96C302.3 96 288 110.3 288 128L288 288L128 288C110.3 288 96 302.3 96 320C96 337.7 110.3 352 128 352L288 352L288 512C288 529.7 302.3 544 320 544C337.7 544 352 529.7 352 512L352 352L512 352C529.7 352 544 337.7 544 320C544 302.3 529.7 288 512 288L352 288L352 128z"/>
    </symbol>
    <symbol id="icon-sort-down" viewBox="0 0 640 640">
        <!--!Font Awesome Free 7.0.0 by @fontawesome - https://fontawesome.com License - https://fontawesome.com/license/free Copyright 2025 Fonticons, Inc.--><path d="M278.6 438.6L182.6 534.6C170.1 547.1 149.8 547.1 137.3 534.6L41.3 438.6C28.8 426.1 28.8 405.8 41.3 393.3C53.8 380.8 74.1 380.8 86.6 393.3L128 434.7L128 128C128 110.3 142.3 96 160 96C177.7 96 192 110.3 192 128L192 434.7L233.4 393.3C245.9 380.8 266.2 380.8 278.7 393.3C291.2 405.8 291.2 426.1 278.7 438.6zM352 96L384 96C401.7 96 416 110.3 416 128C416 145.7 401.7 160 384 160L352 160C334.3 160 320 145.7 320 128C320 110.3 334.3 96 352 96zM352 224L448 224C465.7 224 480 238.3 480 256C480 273.7 465.7 288 448 288L352 288C334.3 288 320 273.7 320 256C320 238.3 334.3 224 352 224zM352 352L512 352C529.7 352 544 366.3 544 384C544 401.7 529.7 416 512 416L352 416C334.3 416 320 401.7 320 384C320 366.3 334.3 352 352 352zM352 480L576 480C593.7 480 608 494.3 608 512C608 529.7 593.7 544 576 544L352 544C334.3 544 320 529.7 320 512C320 494.3 334.3 480 352 480z"/>
    </symbol>
    <symbol id="icon-loading" viewBox="0 0 640 640">
        <!--!Font Awesome Free 7.0.0 by @fontawesome - https://fontawesome.com License - https://fontawesome.com/license/free Copyright 2025 Fonticons, Inc.--><path d="M286.7 96.1C291.7 113 282.1 130.9 265.2 135.9C185.9 159.5 128.1 233 128.1 320C128.1 426 214.1 512 320.1 512C426.1 512 512.1 426 512.1 320C512.1 233.1 454.3 159.6 375 135.9C358.1 130.9 348.4 113 353.5 96.1C358.6 79.2 376.4 69.5 393.3 74.6C498.9 106.1 576 204 576 320C576 461.4 461.4 576 320 576C178.6 576 64 461.4 64 320C64 204 141.1 106.1 246.9 74.6C263.8 69.6 281.7 79.2 286.7 96.1z"/>
    </symbol>
    <symbol id="icon-sort-up" viewBox="0 0 640 640">
        <!--!Font Awesome Free 7.0.0 by @fontawesome - https://fontawesome.com License - https://fontawesome.com/license/free Copyright 2025 Fonticons, Inc.--><path d="M352 96C334.3 96 320 110.3 320 128C320 145.7 334.3 160 352 160L384 160C401.7 160 416 145.7 416 128C416 110.3 401.7 96 384 96L352 96zM352 224C334.3 224 320 238.3 320 256C320 273.7 334.3 288 352 288L448 288C465.7 288 480 273.7 480 256C480 238.3 465.7 224 448 224L352 224zM352 352C334.3 352 320 366.3 320 384C320 401.7 334.3 416 352 416L512 416C529.7 416 544 401.7 544 384C544 366.3 529.7 352 512 352L352 352zM352 480C334.3 480 320 494.3 320 512C320 529.7 334.3 544 352 544L576 544C593.7 544 608 529.7 608 512C608 494.3 593.7 480 576 480L352 480zM182.6 105.4C170.1 92.9 149.8 92.9 137.3 105.4L41.3 201.4C28.8 213.9 28.8 234.2 41.3 246.7C53.8 259.2 74.1 259.2 86.6 246.7L128 205.3L128 512C128 529.7 142.3 544 160 544C177.7 544 192 529.7 192 512L192 205.3L233.4 246.7C245.9 259.2 266.2 259.2 278.7 246.7C291.2 234.2 291.2 213.9 278.7 201.4L182.7 105.4z"/>
    </symbol>
    <symbol id="icon-search" viewBox="0 0 640 640">
        <!--!Font Awesome Free 7.0.0 by @fontawesome - https://fontawesome.com License - https://fontawesome.com/license/free Copyright 2025 Fonticons, Inc.--><path d="M480 272C480 317.9 465.1 360.3 440 394.7L566.6 521.4C579.1 533.9 579.1 554.2 566.6 566.7C554.1 579.2 533.8 579.2 521.3 566.7L394.7 440C360.3 465.1 317.9 480 272 480C157.1 480 64 386.9 64 272C64 157.1 157.1 64 272 64C386.9 64 480 157.1 480 272zM272 416C351.5 416 416 351.5 416 272C416 192.5 351.5 128 272 128C192.5 128 128 192.5 128 272C128 351.5 192.5 416 272 416z"/>
    </symbol>
    <symbol id="icon-filter" viewBox="0 0 640 640">
    <!--!Font Awesome Free 7.0.0 by @fontawesome - https://fontawesome.com License - https://fontawesome.com/license/free Copyright 2025 Fonticons, Inc.--><path d="M96 128C83.1 128 71.4 135.8 66.4 147.8C61.4 159.8 64.2 173.5 73.4 182.6L256 365.3L256 480C256 488.5 259.4 496.6 265.4 502.6L329.4 566.6C338.6 575.8 352.3 578.5 364.3 573.5C376.3 568.5 384 556.9 384 544L384 365.3L566.6 182.7C575.8 173.5 578.5 159.8 573.5 147.8C568.5 135.8 556.9 128 544 128L96 128z"/>
    </symbol>
    <symbol id="icon-view" viewBox="0 0 640 640">
        <!--!Font Awesome Free 7.0.0 by @fontawesome - https://fontawesome.com License - https://fontawesome.com/license/free Copyright 2025 Fonticons, Inc.--><path d="M320 96C239.2 96 174.5 132.8 127.4 176.6C80.6 220.1 49.3 272 34.4 307.7C31.1 315.6 31.1 324.4 34.4 332.3C49.3 368 80.6 420 127.4 463.4C174.5 507.1 239.2 544 320 544C400.8 544 465.5 507.2 512.6 463.4C559.4 419.9 590.7 368 605.6 332.3C608.9 324.4 608.9 315.6 605.6 307.7C590.7 272 559.4 220 512.6 176.6C465.5 132.9 400.8 96 320 96zM176 320C176 240.5 240.5 176 320 176C399.5 176 464 240.5 464 320C464 399.5 399.5 464 320 464C240.5 464 176 399.5 176 320zM320 256C320 291.3 291.3 320 256 320C244.5 320 233.7 317 224.3 311.6C223.3 322.5 224.2 333.7 227.2 344.8C240.9 396 293.6 426.4 344.8 412.7C396 399 426.4 346.3 412.7 295.1C400.5 249.4 357.2 220.3 311.6 224.3C316.9 233.6 320 244.4 320 256z"/>
    </symbol>
    <symbol id="icon-close" viewBox="0 0 640 640">
        <!--!Font Awesome Free 7.0.0 by @fontawesome - https://fontawesome.com License - https://fontawesome.com/license/free Copyright 2025 Fonticons, Inc.--><path d="M183.1 137.4C170.6 124.9 150.3 124.9 137.8 137.4C125.3 149.9 125.3 170.2 137.8 182.7L275.2 320L137.9 457.4C125.4 469.9 125.4 490.2 137.9 502.7C150.4 515.2 170.7 515.2 183.2 502.7L320.5 365.3L457.9 502.6C470.4 515.1 490.7 515.1 503.2 502.6C515.7 490.1 515.7 469.8 503.2 457.3L365.8 320L503.1 182.6C515.6 170.1 515.6 149.8 503.1 137.3C490.6 124.8 470.3 124.8 457.8 137.3L320.5 274.7L183.1 137.4z"/>
    </symbol>
    <symbol id="icon-edit" viewBox="0 0 640 640">
        <!--!Font Awesome Free 7.0.0 by @fontawesome - https://fontawesome.com License - https://fontawesome.com/license/free Copyright 2025 Fonticons, Inc.--><path d="M535.6 85.7C513.7 63.8 478.3 63.8 456.4 85.7L432 110.1L529.9 208L554.3 183.6C576.2 161.7 576.2 126.3 554.3 104.4L535.6 85.7zM236.4 305.7C230.3 311.8 225.6 319.3 222.9 327.6L193.3 416.4C190.4 425 192.7 434.5 199.1 441C205.5 447.5 215 449.7 223.7 446.8L312.5 417.2C320.7 414.5 328.2 409.8 334.4 403.7L496 241.9L398.1 144L236.4 305.7zM160 128C107 128 64 171 64 224L64 480C64 533 107 576 160 576L416 576C469 576 512 533 512 480L512 384C512 366.3 497.7 352 480 352C462.3 352 448 366.3 448 384L448 480C448 497.7 433.7 512 416 512L160 512C142.3 512 128 497.7 128 480L128 224C128 206.3 142.3 192 160 192L256 192C273.7 192 288 177.7 288 160C288 142.3 273.7 128 256 128L160 128z"/>
    </symbol>
    <symbol id="icon-remove" viewBox="0 0 640 640">
        <!--!Font Awesome Free v7.0.0 by @fontawesome - https://fontawesome.com License - https://fontawesome.com/license/free Copyright 2025 Fonticons, Inc.--><path d="M232.7 69.9L224 96L128 96C110.3 96 96 110.3 96 128C96 145.7 110.3 160 128 160L512 160C529.7 160 544 145.7 544 128C544 110.3 529.7 96 512 96L416 96L407.3 69.9C402.9 56.8 390.7 48 376.9 48L263.1 48C249.3 48 237.1 56.8 232.7 69.9zM512 208L128 208L149.1 531.1C150.7 556.4 171.7 576 197 576L443 576C468.3 576 489.3 556.4 490.9 531.1L512 208z"/>
    </symbol>
    <symbol id="icon-trash" viewBox="0 0 640 640">
        <!--!Font Awesome Free v7.0.0 by @fontawesome - https://fontawesome.com License - https://fontawesome.com/license/free Copyright 2025 Fonticons, Inc.--><path d="M262.2 48C248.9 48 236.9 56.3 232.2 68.8L216 112L120 112C106.7 112 96 122.7 96 136C96 149.3 106.7 160 120 160L520 160C533.3 160 544 149.3 544 136C544 122.7 533.3 112 520 112L424 112L407.8 68.8C403.1 56.3 391.2 48 377.8 48L262.2 48zM128 208L128 512C128 547.3 156.7 576 192 576L448 576C483.3 576 512 547.3 512 512L512 208L464 208L464 512C464 520.8 456.8 528 448 528L192 528C183.2 528 176 520.8 176 512L176 208L128 208zM288 280C288 266.7 277.3 256 264 256C250.7 256 240 266.7 240 280L240 456C240 469.3 250.7 480 264 480C277.3 480 288 469.3 288 456L288 280zM400 280C400 266.7 389.3 256 376 256C362.7 256 352 266.7 352 280L352 456C352 469.3 362.7 480 376 480C389.3 480 400 469.3 400 456L400 280z"/>
    </symbol>
    <symbol id="icon-link" viewBox="0 0 640 640">
        <!--!Font Awesome Free v7.0.0 by @fontawesome - https://fontawesome.com License - https://fontawesome.com/license/free Copyright 2025 Fonticons, Inc.--><path d="M288.6 76.8C344.8 20.6 436 20.6 492.2 76.8C548.4 133 548.4 224.2 492.2 280.4L328.2 444.4C293.8 478.8 238.1 478.8 203.7 444.4C169.3 410 169.3 354.3 203.7 319.9L356.5 167.3C369 154.8 389.3 154.8 401.8 167.3C414.3 179.8 414.3 200.1 401.8 212.6L249 365.3C239.6 374.7 239.6 389.9 249 399.2C258.4 408.5 273.6 408.6 282.9 399.2L446.9 235.2C478.1 204 478.1 153.3 446.9 122.1C415.7 90.9 365 90.9 333.8 122.1L169.8 286.1C116.7 339.2 116.7 425.3 169.8 478.4C222.9 531.5 309 531.5 362.1 478.4L492.3 348.3C504.8 335.8 525.1 335.8 537.6 348.3C550.1 360.8 550.1 381.1 537.6 393.6L407.4 523.6C329.3 601.7 202.7 601.7 124.6 523.6C46.5 445.5 46.5 318.9 124.6 240.8L288.6 76.8z"/>
    </symbol>
    <symbol id="icon-triangle-exclamation"  viewBox="0 0 640 640">
      <!--!Font Awesome Free v7.0.0 by @fontawesome - https://fontawesome.com License - https://fontawesome.com/license/free Copyright 2025 Fonticons, Inc.--><path d="M320 64C334.7 64 348.2 72.1 355.2 85L571.2 485C577.9 497.4 577.6 512.4 570.4 524.5C563.2 536.6 550.1 544 536 544L104 544C89.9 544 76.9 536.6 69.6 524.5C62.3 512.4 62.1 497.4 68.8 485L284.8 85C291.8 72.1 305.3 64 320 64zM320 232C306.7 232 296 242.7 296 256L296 368C296 381.3 306.7 392 320 392C333.3 392 344 381.3 344 368L344 256C344 242.7 333.3 232 320 232zM346.7 448C347.3 438.1 342.4 428.7 333.9 423.5C325.4 418.4 314.7 418.4 306.2 423.5C297.7 428.7 292.8 438.1 293.4 448C292.8 457.9 297.7 467.3 306.2 472.5C314.7 477.6 325.4 477.6 333.9 472.5C342.4 467.3 347.3 457.9 346.7 448z"/>
    </symbol>
    <symbol id="icon-circle-exclamation" viewBox="0 0 640 640">
      <!--!Font Awesome Free v7.0.0 by @fontawesome - https://fontawesome.com License - https://fontawesome.com/license/free Copyright 2025 Fonticons, Inc.--><path d="M320 576C461.4 576 576 461.4 576 320C576 178.6 461.4 64 320 64C178.6 64 64 178.6 64 320C64 461.4 178.6 576 320 576zM320 200C333.3 200 344 210.7 344 224L344 336C344 349.3 333.3 360 320 360C306.7 360 296 349.3 296 336L296 224C296 210.7 306.7 200 320 200zM293.3 416C292.7 406.1 297.6 396.7 306.1 391.5C314.6 386.4 325.3 386.4 333.8 391.5C342.3 396.7 347.2 406.1 346.6 416C347.2 425.9 342.3 435.3 333.8 440.5C325.3 445.6 314.6 445.6 306.1 440.5C297.6 435.3 292.7 425.9 293.3 416z"/>
    </symbol>
    <symbol id="icon-circle-check" viewBox="0 0 640 640">
      <!--!Font Awesome Free v7.0.0 by @fontawesome - https://fontawesome.com License - https://fontawesome.com/license/free Copyright 2025 Fonticons, Inc.--><path d="M320 576C461.4 576 576 461.4 576 320C576 178.6 461.4 64 320 64C178.6 64 64 178.6 64 320C64 461.4 178.6 576 320 576zM404.4 276.7L324.4 404.7C320.2 411.4 313 415.6 305.1 416C297.2 416.4 289.6 412.8 284.9 406.4L236.9 342.4C228.9 331.8 231.1 316.8 241.7 308.8C252.3 300.8 267.3 303 275.3 313.6L302.3 349.6L363.7 251.3C370.7 240.1 385.5 236.6 396.8 243.7C408.1 250.8 411.5 265.5 404.4 276.8z"/>
    </symbol>
</svg>
